<svg width="52" height="52" viewBox="0 0 52 52" fill="none" xmlns="http://www.w3.org/2000/svg">
<g filter="url(#filter0_i_423_6)">
<path d="M26 45.5C36.7696 45.5 45.5 36.7696 45.5 26C45.5 15.2304 36.7696 6.5 26 6.5C15.2304 6.5 6.5 15.2304 6.5 26C6.5 36.7696 15.2304 45.5 26 45.5Z" fill="white" stroke="url(#paint0_linear_423_6)"/>
<path d="M25.9565 12C22.9433 12 20.4783 14.4651 20.4783 17.4783C20.4783 20.4914 22.9434 22.9565 25.9565 22.9565C28.9697 22.9565 31.4348 20.4914 31.4348 17.4783C31.4348 14.4651 28.9697 12 25.9565 12ZM25.9565 14.087C27.8419 14.087 29.3479 15.593 29.3479 17.4784C29.3479 19.3637 27.8419 20.8697 25.9565 20.8697C24.0711 20.8697 22.5652 19.3637 22.5652 17.4784C22.5652 15.593 24.0711 14.087 25.9565 14.087ZM25.9565 23.4783C19.888 23.4783 15 28.658 15 34.9566C15 35.2332 15.1099 35.4987 15.3057 35.6943C15.5013 35.8901 15.7666 36 16.0434 36H35.8695C36.1463 36 36.4116 35.8901 36.6072 35.6943C36.803 35.4987 36.9129 35.2332 36.9129 34.9566C36.9129 28.658 32.0249 23.4783 25.9564 23.4783H25.9565ZM25.9565 25.5653C30.5041 25.5653 34.2336 29.1923 34.7283 33.9132H17.1848C17.6794 29.1923 21.409 25.5653 25.9565 25.5653Z" fill="url(#paint1_linear_423_6)"/>
</g>
<ellipse cx="26" cy="17.5" rx="4" ry="3.5" fill="url(#paint2_linear_423_6)"/>
<path d="M36 35H16C17.161 27.8627 19.2048 25.2722 26 24.5C32.4135 25.3579 34.7358 27.4847 36 35Z" fill="url(#paint3_linear_423_6)" stroke="url(#paint4_linear_423_6)"/>
<defs>
<filter id="filter0_i_423_6" x="6" y="6" width="40" height="40" filterUnits="userSpaceOnUse" color-interpolation-filters="sRGB">
<feFlood flood-opacity="0" result="BackgroundImageFix"/>
<feBlend mode="normal" in="SourceGraphic" in2="BackgroundImageFix" result="shape"/>
<feColorMatrix in="SourceAlpha" type="matrix" values="0 0 0 0 0 0 0 0 0 0 0 0 0 0 0 0 0 0 127 0" result="hardAlpha"/>
<feOffset/>
<feGaussianBlur stdDeviation="3"/>
<feComposite in2="hardAlpha" operator="arithmetic" k2="-1" k3="1"/>
<feColorMatrix type="matrix" values="0 0 0 0 1 0 0 0 0 1 0 0 0 0 1 0 0 0 0.25 0"/>
<feBlend mode="normal" in2="shape" result="effect1_innerShadow_423_6"/>
</filter>
<linearGradient id="paint0_linear_423_6" x1="-1.17345" y1="52.9682" x2="59.6756" y2="28.1019" gradientUnits="userSpaceOnUse">
<stop stop-color="#21F2F1"/>
<stop offset="1" stop-color="#6846D4"/>
</linearGradient>
<linearGradient id="paint1_linear_423_6" x1="11.0702" y1="40.1809" x2="45.2176" y2="27.4399" gradientUnits="userSpaceOnUse">
<stop stop-color="#21F2F1"/>
<stop offset="1" stop-color="#6846D4"/>
</linearGradient>
<linearGradient id="paint2_linear_423_6" x1="20.5653" y1="22.2194" x2="32.2244" y2="16.7742" gradientUnits="userSpaceOnUse">
<stop stop-color="#21F2F1"/>
<stop offset="1" stop-color="#6846D4"/>
</linearGradient>
<linearGradient id="paint3_linear_423_6" x1="12.4133" y1="36.8291" x2="34.5227" y2="19.6194" gradientUnits="userSpaceOnUse">
<stop stop-color="#21F2F1"/>
<stop offset="1" stop-color="#6846D4"/>
</linearGradient>
<linearGradient id="paint4_linear_423_6" x1="12.4133" y1="36.8291" x2="34.5227" y2="19.6194" gradientUnits="userSpaceOnUse">
<stop stop-color="#21F2F1"/>
<stop offset="1" stop-color="#6846D4"/>
</linearGradient>
</defs>
</svg>
